<?xml version="1.0" encoding="UTF-8"?>
<svg id="Layer_4" data-name="Layer 4" xmlns="http://www.w3.org/2000/svg" viewBox="0 0 500 500">
  <defs>
    <style>
      .cls-1 {
        fill: #86a71d;
      }

      .cls-2 {
        fill: #1a6cb6;
      }
    </style>
  </defs>
  <path class="cls-2" d="M80.67,251.5c0-48.87,19.69-93.13,51.57-125.3-8.72-7.56-16.67-15.72-25.42-23.36-37.64,38.26-60.87,90.74-60.87,148.65,0,87.52,53.04,162.65,128.73,195.01,4.81-10.29,9.63-20.67,13.94-31.32-63.48-27.21-107.95-90.25-107.95-163.69Z"/>
  <path class="cls-2" d="M469.96,251.5c0-57.85-23.18-110.27-60.74-148.52-7.9,9.13-14.22,15.39-23.21,24.11,31.37,32.09,50.71,75.99,50.71,124.41,0,70.2-40.63,130.9-99.66,159.88,4.26,10.41,10.17,20.01,14.77,30.25,70.85-34.32,118.13-106.13,118.13-190.14Z"/>
  <path class="cls-1" d="M173.99,340.88s-24.13-51.22,11.82-85.69c35.95-34.47,89.63-45.31,89.63-45.31l27.58-41.37h-104.4s-77.63,2.46-82.49,65.99c0,0,28.32-26.1,66.24-21.18,0,0-99.97,46.29-51.22,127.55h42.84Z"/>
  <path class="cls-1" d="M256.48,234.14h89.75s63.16-3.69,77.19-21.05c0,0,3.32,64.27-101.57,69.81h-92.34l26.96-48.75Z"/>
  <path class="cls-1" d="M227.92,292.12h89.75s63.16-3.69,77.19-21.05c0,0,3.32,64.27-101.57,69.81h-92.34l26.96-48.75Z"/>
  <g>
    <path d="M147.62,96.05c.25.42.51.9.73,1.41.81,1.87.57,4.11-.66,6.56-.99,1.95-2.59,3.92-4.75,5.98-1.82,1.73-3.48,2.58-4.96,2.49-1.1-.06-2.05-.62-2.83-1.7-.43-.59-.8-1.27-1.11-2.04-.31-.77-.57-1.73-.81-2.85-.48-2.2-.69-4.24-.57-6.07,1.1-.27,1.64-.4,2.72-.65.04,1.62.26,3.38.7,5.21.21.89.47,1.68.73,2.37.26.68.53,1.21.79,1.58.43.61.97.83,1.63.67.66-.16,1.44-.68,2.34-1.54,2.13-2.02,3.46-3.7,4.02-5.17.56-1.47.39-2.94-.53-4.42-.31-.49-.76-1.07-1.32-1.74-.34-.4-.65-.73-.94-.97-.18-.19-.27-.28-.46-.47-.12-.12-.19-.18-.31-.3-.14-.12-.21-.17-.35-.29-1.38-1.2-2.66-2.17-3.86-2.89.62-1.16.93-1.74,1.56-2.89,1.2.52,2.65,1.56,4.36,3.15,1.71,1.59,2.99,3.12,3.86,4.57ZM137.34,94.26c-.26.21-.4.31-.66.52-.35.32-.52.48-.87.81-.57.53-1.05,1.03-1.44,1.49-.71-1.04-1.06-1.57-1.77-2.61.07-.09.11-.14.18-.24.15-.18.22-.27.37-.46.38-.38.57-.58.95-.96.15-.14.22-.21.37-.34.19-.15.29-.23.48-.38.26-.2.38-.3.64-.5.7,1.07,1.05,1.61,1.74,2.68Z"/>
    <path d="M155.21,93.23c-.91.71-1.36,1.06-2.27,1.79-.14-.3-.21-.45-.35-.75-.19-.34-.29-.52-.49-.86-1.37-2.43-3.23-5.12-5.53-8.04-.65-.83-1.21-1.54-1.7-2.12-.48-.58-.99-1.16-1.51-1.71-.99-1.06-1.87-1.93-2.65-2.57.95-1.08,1.43-1.62,2.39-2.68.3.32.45.48.75.79.35.41.53.61.88,1.02.83,1.02,1.25,1.54,2.08,2.56,1.57,2.05,3.12,4.22,4.64,6.48.46.74.69,1.12,1.16,1.86.35.58.52.87.87,1.45.33.56.5.84.83,1.41.36.54.54.82.89,1.36Z"/>
    <path d="M167.31,84.66c-.8.51-1.2.77-1.99,1.3.29,1.32.39,2.7.32,4.14-.06,1.06-.21,2.16-.46,3.3-1.07-.27-1.61-.39-2.7-.63.11-.32.19-.68.24-1.07.02-.19.05-.45.08-.78.01-.2.04-.41.05-.61.05-.79-.04-1.67-.19-2.55-.97.67-1.45,1.01-2.42,1.7-.44.32-.96.45-1.57.41-.74-.05-1.51-.41-2.3-1.08-.27-.26-.4-.39-.67-.64-.28-.33-.42-.49-.7-.82-.27-.39-.4-.58-.66-.97-.27-.46-.4-.69-.67-1.15-.91-1.71-1.41-3.4-1.47-5.07-.06-1.67.39-2.85,1.33-3.53,1.25-.9,3.23-.65,5.71.86,2.37,1.44,4.06,3.38,5.1,5.59.69-.46,1.04-.68,1.73-1.12.5,1.09.75,1.63,1.24,2.72ZM161.5,83.94c-.49-1.01-1.2-1.91-2.11-2.71-.77-.67-1.59-1.22-2.48-1.62-.8-.36-1.31-.45-1.54-.29-.33.24-.41.74-.25,1.5.16.76.53,1.71,1.11,2.83.47.91,1.01,1.61,1.6,2.12.76.65,1.4.8,1.93.42.83-.59,1.25-.88,2.09-1.46-.14-.32-.21-.48-.34-.81Z"/>
    <path d="M177.5,74.84c.31.82.37,1.67.16,2.53-.22.93-.69,1.59-1.42,1.99-3.94,2.16-5.88,3.31-9.72,5.8-.5-1.08-.75-1.62-1.25-2.71,3.74-2.42,5.62-3.55,9.46-5.66.11-.06.17-.13.19-.2,0-.19-.01-.28-.02-.47-.04-.09-.07-.13-.11-.22-.08-.09-.12-.13-.21-.21-2.18-1.8-3.29-2.68-5.53-4.4-.28-.21-.51-.26-.69-.15-.17.1-.25.33-.23.69.18,3.07.29,4.61.54,7.66-1.14.23-1.72.35-2.87.61-.25-3.63-.35-5.45-.5-9.1-.02-.54.14-1.08.49-1.62.35-.53.76-.94,1.21-1.2.49-.29,1.02-.44,1.58-.46.56-.02,1.07.14,1.53.47,2.68,2.12,4,3.21,6.59,5.44.33.28.6.68.79,1.2ZM176.05,86.04c-.25.11-.38.16-.63.27-.33.19-.5.29-.83.48-.54.32-1,.63-1.38.93-.52-1.19-.77-1.78-1.29-2.97.07-.06.1-.09.16-.15.15-.13.23-.19.38-.32.36-.24.55-.36.91-.6.14-.08.21-.12.36-.21.17-.1.26-.15.43-.25.24-.11.36-.16.61-.27.51,1.24.77,1.86,1.28,3.09Z"/>
    <path d="M200.89,65.7c.13.5.24,1.04.31,1.61.26,2.06-.56,4.07-2.32,5.84-1.4,1.41-3.34,2.57-5.72,3.54-2.01.82-3.62.89-4.88.17-.93-.53-1.63-1.45-2.07-2.77-.24-.73-.42-1.5-.52-2.34-.1-.83-.12-1.82-.08-2.95.06-2.22.32-4.17.85-5.79,1.02.21,1.53.32,2.54.55-.34,1.51-.55,3.21-.58,5.08-.01.91.03,1.74.11,2.48.08.74.19,1.33.34,1.79.24.74.66,1.17,1.27,1.3.61.13,1.41-.01,2.41-.42,2.35-.96,3.98-1.97,4.86-3.11.88-1.13,1.1-2.57.64-4.32-.15-.58-.43-1.3-.77-2.15-.21-.51-.41-.95-.61-1.29-.12-.25-.18-.37-.3-.62-.08-.16-.12-.24-.21-.4-.1-.16-.15-.25-.24-.41-.96-1.68-1.89-3.1-2.8-4.26.85-.82,1.29-1.23,2.16-2.05.97.97,2.05,2.53,3.22,4.7,1.18,2.17,1.96,4.11,2.39,5.81ZM191.9,59.85c-.29.08-.43.12-.72.21-.39.15-.58.23-.97.38-.64.25-1.18.51-1.63.77-.38-1.26-.57-1.89-.96-3.14.09-.06.13-.09.21-.14.17-.11.26-.16.44-.27.43-.2.64-.29,1.08-.48.17-.07.25-.1.42-.16.21-.06.31-.09.52-.15.28-.08.42-.12.7-.2.37,1.28.55,1.92.92,3.2Z"/>
    <path d="M208.94,66.01c-1.09.32-1.64.49-2.72.82-.05-.34-.07-.5-.12-.84-.09-.4-.14-.6-.23-1-.64-2.82-1.67-6.07-3.06-9.71-.39-1.03-.74-1.92-1.04-2.66-.3-.74-.63-1.47-.97-2.2-.65-1.39-1.25-2.55-1.82-3.46,1.2-.64,1.8-.96,3.02-1.59.2.41.3.62.5,1.04.22.52.34.78.56,1.3.52,1.29.77,1.93,1.28,3.22.94,2.54,1.83,5.17,2.67,7.9.24.88.36,1.32.6,2.2.17.68.26,1.02.44,1.71.16.66.24.99.4,1.65.19.65.29.97.48,1.62Z"/>
    <path d="M219.91,63.13c-.52.12-.78.18-1.31.31-.18.04-.5.07-.86,0-.23-.04-.89-.37-.9-.37-.17.11-.16,2.74-.51,4.1-.35,1.36-.87,2.63-1.57,3.81-1.01-.52-1.52-.78-2.55-1.28.61-1.44,1.06-2.91,1.34-4.42.28-1.51.29-3.03,0-4.58-.05-.25-.08-.37-.14-.62-.03-.13-.05-.19-.08-.32-.02-.09-.02-.2-.05-.27-.03-.07-.08-.13-.1-.17-.09-.22-.13-.33-.22-.55-.08-.21-.21-.47-.37-.77-.29-.56-.7-1.32-1.26-2.21-1.02-1.64-1.53-2.46-2.57-4.08.98-.85,1.47-1.27,2.47-2.11,2.1,3.46,3.12,5.21,5.11,8.72.28.51.62.95,1.01,1.33.51.5.97.7,1.37.61.28-.07.42-.1.69-.16.2,1.21.3,1.82.5,3.03Z"/>
    <path d="M236.19,60.13c-.81.11-1.21.17-2.02.29-.41.06-.79,0-1.15-.16-.36-.17-.7-.41-1.02-.72-.16.2-.24.31-.4.51-.23.22-.34.33-.56.56-.36.27-.79.44-1.27.52-4.35.76-6.51,1.2-10.81,2.22-.2-1.21-.31-1.82-.51-3.03,3.93-.93,5.91-1.34,9.88-2.06.54-.1,1.01-.39,1.28-.86.19-.32.24-.78.18-1.29-.02-.16-.03-.24-.05-.4-.43-1.71-.65-2.56-1.09-4.27-.17-.54-.49-.99-.98-1.35-.49-.36-1.18-.59-2.09-.7-.21,0-.31,0-.52,0-.2,0-.43.03-.7.08-.73.12-1.1.18-1.84.3-.65.13-1.1.25-1.33.35-.14.03-.21.05-.35.08-.12.05-.18.07-.3.12-.54.12-1.01.05-1.34-.22-.32-.25-.53-.7-.62-1.28-.03-.2-.04-.3-.07-.5,0-.22.01-.32.02-.54.02-.6.03-.89.04-1.49.05-.78.34-1.52.86-2.21.52-.69,1.2-1.29,2.05-1.79.27-.11.41-.17.68-.28.54-.18.81-.26,1.36-.44.47-.09.71-.14,1.19-.23.39-.12.58-.18.96-.3,1.93-.35,3.45-.48,4.56-.41.13,1.2.19,1.8.32,3.01-.82.01-1.22.02-2.04.04-.36.02-.54.04-.89.06-.44.05-.66.08-1.1.13-.89.16-1.56.32-2.03.47-.19.06-.29.09-.48.15-.13.02-.28.1-.44.17-.17.08-.3.12-.32.15-.12.08-.18.12-.29.2-1,.6-1.44,1.3-1.32,2.09,1.1-.21,1.64-.31,2.74-.5.18-.04.28-.05.46-.09.12-.02.18-.04.31-.06.11,0,.17,0,.28.02.19,0,.28-.01.47-.02.24,0,.36,0,.6.01,1.41.09,2.52.41,3.29.97.71.51,1.23,1.39,1.56,2.59.46,1.99.68,2.98,1.13,4.97.14.68.37,1.25.7,1.7.33.45.75.64,1.25.57.58-.08.88-.13,1.46-.21.11,1.23.17,1.84.28,3.07ZM230.07,38.55c0,.11,0,.16,0,.27.01.1.02.15.03.25.01.11.02.17.03.29.02.07.02.11.04.18-.44,0-.66.01-1.11.02-.59.03-.88.04-1.46.07-.39.07-.59.1-.99.17-.7.1-1.05.15-1.75.26-1.17.22-2.17.48-2.98.74-.48.16-.88.29-1.2.42-.32.13-.63.3-.94.49-.16-.37-.25-.56-.41-.92.73-.33,1.63-.66,2.7-.98,1.06-.32,2.21-.59,3.43-.81.51-.06.77-.09,1.28-.14.4-.07.6-.11,1.01-.17.25-.04.37-.06.62-.1.19,0,.28,0,.47,0,.5-.02.74-.03,1.24-.05Z"/>
    <path d="M259.63,58.5c-.79,0-1.19,0-1.99.01-.49,0-1.04-.16-1.65-.5-.35-.19-1.17-1.04-1.32-1.03-.16.01-.9.87-1.56,1.2-.66.33-1.33.51-2.02.54-.87.04-1.71-.14-2.5-.5-.6-.27-1.46-1.14-1.46-1.14-.06,0-.56.88-1.13,1.31-.66.5-1.33.77-2.02.84-1.12.1-2.03.02-2.75-.27-.61-.24-1.58-1.17-1.58-1.17-.08.01-.6,1.05-1.15,1.48-.55.43-1.19.69-1.93.79-.54.07-.82.11-1.36.19-.12-1.23-.18-1.84-.29-3.07.49-.07.73-.1,1.21-.17.41-.06.82-.35,1.2-.88.39-.53.56-1.04.52-1.55-.02-.11-.02-.16-.04-.27-.92-3.12-1.38-4.68-2.34-7.8,1.16-.54,1.74-.8,2.91-1.32.83,2.8,1.23,4.2,2.02,7.01.37,1.47.68,2.31.81,2.52.58.9,1.26,1.55,2.17,1.46.56-.05,1-.33,1.28-.81.14-.25.24-.54.31-.83.02-.19.03-.28.06-.46,0-.2,0-.3,0-.49-.01-.14-.02-.21-.04-.35,0-.15-.04-.28-.09-.4-.79-2.87-1.19-4.3-2.02-7.17,1.17-.56,1.76-.83,2.94-1.37.8,2.89,1.19,4.34,1.95,7.24.32,1.31.64,2.19.87,2.59.56.98,1.22,1.55,2.06,1.51.55-.03.99-.33,1.33-.9.34-.57.5-1.16.49-1.78,0-.14-.01-.21-.02-.35,0-.15-.05-.31-.13-.5-1.03-2.75-1.56-4.13-2.66-6.87,1.14-.54,1.71-.81,2.87-1.33,1.49,3.61,2.21,5.42,3.6,9.06.28.8.57,1.3.74,1.51.42.52.86.92,1.36.92.55,0,.82,0,1.37,0-.01,1.23-.02,1.85-.03,3.08ZM248.29,38.4c-.01.17-.02.26-.04.43-.04.54-.06.81-.09,1.35-.02.71-.02,1.06-.04,1.77-.39-.05-.59-.07-.98-.12-.49,0-.74-.01-1.23-.01-.45.03-.67.05-1.12.09-.84.05-1.26.08-2.1.13-.85.1-1.28.15-2.12.26-.31.03-.46.05-.77.08-.32.1-.47.14-.79.24-.16-1.39-.24-2.09-.4-3.48.36-.1.53-.15.89-.25.4-.06.6-.09,1-.16.62-.06.92-.09,1.54-.15.56-.08.84-.12,1.39-.2.71-.04,1.06-.05,1.77-.08.46-.04.69-.05,1.15-.09.24,0,.36,0,.6,0,.19-.01.36.01.48.03.2.04.51.07.84.15ZM245.17,37.3c-.33,0-.49-.01-.82-.02-.46.04-.68.06-1.14.1-.75.07-1.39.16-1.95.28-.08-1.33-.13-2-.21-3.33.11-.03.16-.04.27-.08.21-.05.32-.08.53-.14.51-.06.77-.09,1.28-.15.19-.02.29-.03.49-.04.24,0,.36,0,.6-.01.32,0,.48,0,.79,0,.07,1.35.1,2.03.16,3.38Z"/>
    <path d="M275.19,55.67c-.07.92-.63,1.69-1.67,2.32-1.04.63-2.13.9-3.29.83-4.63-.29-6.95-.35-11.58-.31,0-1.23,0-1.85.02-3.08.91,0,1.37,0,2.28,0-.12-.58-.17-.88-.29-1.46-.04-.36-.05-.54-.09-.9,0-.34,0-.51.01-.85.02-1.19.39-2.47,1.16-3.74.83-1.37,1.97-2.23,3.3-2.54-.07-.09-.11-.14-.18-.23.73-.83,1.1-1.25,1.85-2.08,2.14,1.13,4.15,3.02,5.98,5.66,1.83,2.63,2.63,4.78,2.51,6.39ZM266.27,49.63c0-.22,0-.33,0-.54,0-.18-.03-.34-.05-.46-.04-.21-.11-.37-.23-.38-.32-.03-.78.41-1.28,1.27-.44.76-.76,1.57-.96,2.42-.03.37-.04.56-.07.93-.02.64,0,1.21.05,1.68.05.48.18.73.35.74.21.01.51-.37.89-1.03.29-.5.61-1.16.88-1.94.1-.46.14-.69.24-1.15.04-.32.07-.49.11-.81.02-.29.04-.44.06-.73ZM271.94,54.64c.03-.5-.27-1.39-.95-2.58-.5-.88-1.09-1.68-1.7-2.39,0,.36.01.54.02.9-.05.93-.23,1.89-.55,2.9-.32,1.01-.7,1.71-1.13,2.12.91.04,1.36.07,2.27.12.55.03.99-.06,1.3-.21.43-.21.71-.48.73-.87Z"/>
    <path d="M288.28,57.66c-.19,1.42-.58,2.76-1.18,4.01-.49,1.04-1.13,2.01-1.9,2.94-.14.16-.2.24-.34.39-.24.24-.35.37-.59.61-.41.38-.62.57-1.02.96-.77-.99-1.16-1.48-1.96-2.46.28-.17.54-.39.8-.66.12-.13.29-.32.5-.56.12-.15.26-.3.37-.44.47-.59.89-1.34,1.26-2.14-1.2-.18-1.8-.26-3-.42-.55-.07-1.06-.35-1.55-.83-.6-.58-1.05-1.42-1.35-2.52-.08-.4-.13-.6-.21-.99-.05-.46-.08-.69-.13-1.15,0-.5-.01-.75-.03-1.25.03-.56.04-.83.07-1.39.17-2.01.68-3.7,1.55-5.06.87-1.35,1.89-1.96,3.04-1.81,1.55.2,3.09,1.8,4.38,4.74,1.24,2.82,1.62,5.56,1.3,8.04ZM285.35,56.45c.14-1.15.03-2.38-.31-3.67-.29-1.08-.69-2.12-1.22-3.08-.48-.86-.86-1.31-1.14-1.35-.41-.05-.75.28-1.04,1-.28.72-.49,1.73-.62,3.03-.1,1.06-.04,2,.19,2.84.29,1.06.75,1.65,1.4,1.74,1.03.14,1.55.22,2.58.38.06-.35.09-.53.15-.88Z"/>
    <path d="M301.21,42.88c-.05.16-.08.24-.13.4-.15.51-.22.77-.37,1.28-.16.68-.24,1.02-.4,1.7-.37-.16-.56-.25-.93-.41-.47-.15-.71-.23-1.18-.38-.44-.1-.66-.15-1.1-.24-.82-.2-1.23-.3-2.05-.49-.84-.15-1.26-.23-2.11-.37-.3-.06-.45-.09-.76-.14-.33,0-.49,0-.81,0,.14-1.39.2-2.09.34-3.49.36,0,.55,0,.91.01.4.05.6.08,1,.14.61.12.91.18,1.52.3.55.08.83.13,1.38.22.69.17,1.04.26,1.73.44.45.1.68.15,1.13.26.23.07.35.11.58.18.18.04.34.12.45.18.19.09.48.22.78.39ZM299.89,63.47c-.52-.13-.78-.2-1.3-.33-.18-.04-.48-.17-.79-.4-.2-.15-.7-.75-.7-.75-.17.03-1.07,2.44-1.84,3.53-.78,1.09-1.69,2.01-2.73,2.78-.76-.95-1.14-1.42-1.91-2.35,1.05-1.04,1.96-2.19,2.73-3.44.77-1.25,1.29-2.65,1.54-4.21.03-.25.05-.38.08-.64.01-.13.02-.2.04-.34.01-.09.04-.19.04-.27,0-.08-.03-.16-.04-.2,0-.24-.01-.37-.02-.61,0-.23-.03-.53-.08-.88-.08-.65-.2-1.54-.42-2.62-.38-1.98-.58-2.96-.98-4.94,1.19-.33,1.78-.5,2.98-.81.76,4.15,1.11,6.23,1.75,10.39.09.6.25,1.16.48,1.69.3.7.65,1.1,1.05,1.2.28.07.42.1.69.17-.23,1.21-.34,1.81-.56,3.01ZM298.42,40.89c-.32-.1-.48-.16-.79-.26-.45-.1-.67-.14-1.12-.24-.73-.15-1.38-.25-1.94-.29.19-1.32.29-1.97.49-3.29.11,0,.16,0,.27,0,.22,0,.33.01.55.02.51.09.76.13,1.26.23.19.04.29.06.48.1.23.06.35.1.58.16.31.09.46.14.76.24-.22,1.33-.32,2-.54,3.33Z"/>
    <path d="M309.55,60.64c-.15.67-.39,1.27-.72,1.8-.33.54-.76,1.02-1.29,1.44-1.04.83-2.15,1.08-3.35.74-2.07-.59-3.12-.87-5.22-1.4.22-1.21.33-1.81.55-3.02,1.73.43,2.6.66,4.31,1.14.53.15,1.07.04,1.61-.34.54-.37.89-.88,1.02-1.53.06-.27.07-.54.05-.79-.35-3.19-.55-4.78-.98-7.98,1.24-.2,1.86-.3,3.1-.49.21,1.47.31,2.21.5,3.68.15,1.39.23,2.08.37,3.47.05.61.08.92.13,1.53.06.59.02,1.17-.11,1.74ZM308.1,68.73c-.06.16-.08.24-.14.4-.17.5-.25.75-.42,1.26-.19.67-.29,1-.48,1.68-.2-.12-.31-.17-.51-.29-.27-.13-.41-.19-.68-.32-.25-.09-.38-.14-.64-.23-.6-.2-.9-.3-1.5-.49-.51-.15-.77-.22-1.28-.36-.75-.19-1.13-.29-1.89-.47-.13-.04-.19-.05-.32-.09-.14-.02-.21-.04-.36-.06-.29-.03-.44-.04-.73-.07.21-1.37.31-2.05.51-3.42.69.09,1.04.13,1.73.23,1.04.25,1.56.39,2.6.65.62.18.93.26,1.54.44.39.14.59.21.98.36.16.05.25.07.41.12.21.09.32.14.53.23.28.15.49.29.63.43ZM303.5,75.61c-.27-.11-.4-.16-.67-.26-.38-.12-.57-.17-.95-.29-.63-.18-1.19-.3-1.68-.36.26-1.31.39-1.97.65-3.29.09,0,.14,0,.23,0,.2.02.29.03.49.05.44.1.65.15,1.09.25.16.05.25.07.41.12.2.08.3.12.49.19.26.1.39.15.65.26-.29,1.33-.43,1.99-.71,3.32Z"/>
    <path d="M328.34,67.96c-.39,1.19-1.02,2.11-1.87,2.73-.92.67-1.87.81-2.83.44-1.3-.51-1.96-.76-3.28-1.25-1.13-.42-1.87-1.1-2.22-2.05-.31-.84-.32-1.85,0-3.03.22-.82.71-1.87,1.47-3.16.76-1.29,1.46-2.23,2.12-2.84.85.79,1.27,1.18,2.09,1.98-.22.27-.74,1.02-1.57,2.24-.29.49-.44.74-.74,1.24-.02.05-.09.19-.19.41-.1.22-.16.36-.17.41-.15.51-.19.95-.11,1.31.08.36.28.6.61.73.91.34,1.36.51,2.26.86.4.15.8.1,1.13-.18.37-.31.62-.69.74-1.07.13-.41.12-1.11-.05-2.06-.21-1.16-.59-2.32-1.12-3.44-.66-1.39-1.55-2.69-2.67-3.88.86-.7,1.28-1.05,2.15-1.75,1.48,1.22,2.7,3.19,3.63,5.88.96,2.76,1.14,4.92.63,6.47Z"/>
    <path d="M335.88,76.53c-1.11-.55-1.67-.82-2.8-1.35-1.17-.55-1.95-1.51-2.33-2.9-.39-1.45-.29-3.09.32-4.9.82-2.42,1.89-4.75,3.11-6.96.66-1.2,1.35-2.39,2.09-3.51.74-1.12,1.47-2.06,2.17-2.82.97.85,1.45,1.28,2.4,2.14-.69.76-1.6,1.97-2.71,3.66-.5.84-.75,1.26-1.24,2.1-.51.96-.76,1.44-1.27,2.4-.4.87-.61,1.31-1.01,2.18-.29.73-.43,1.09-.72,1.82-.46,1.29-.55,2.29-.3,3,.21.57.7,1.04,1.48,1.41.75.36,1.12.54,1.87.91-.43,1.13-.64,1.69-1.07,2.82Z"/>
    <path d="M349.37,84.1c-.65-.41-.98-.62-1.64-1.02-.33-.2-.59-.49-.78-.85-.18-.36-.32-.77-.41-1.22-.22.07-.33.1-.55.17-.27.04-.41.06-.68.11-.4,0-.79-.12-1.19-.35-3.58-2.06-5.39-3.02-9.07-4.81.42-1.13.64-1.69,1.06-2.82,3.37,1.64,5.03,2.51,8.31,4.38.45.25.94.3,1.36.08.29-.15.56-.49.75-.95.06-.15.09-.22.15-.36.5-1.68.75-2.51,1.24-4.19.13-.55.11-1.13-.08-1.73-.19-.6-.59-1.22-1.22-1.87-.15-.13-.23-.2-.39-.33-.15-.12-.33-.24-.56-.36-.6-.36-.91-.54-1.51-.89-.55-.29-.94-.47-1.15-.53-.12-.06-.18-.09-.3-.16-.11-.04-.16-.05-.28-.09-.46-.24-.77-.58-.9-1.01-.12-.41-.07-.91.14-1.44.08-.18.11-.27.19-.46.11-.17.16-.26.27-.43.3-.48.45-.72.75-1.21.41-.61.97-1.05,1.69-1.3.72-.25,1.52-.32,2.39-.21.26.08.39.12.64.19.49.19.73.28,1.22.48.4.22.6.33,1,.55.35.14.52.21.86.35,1.61.91,2.81,1.75,3.61,2.5-.48,1.07-.72,1.61-1.2,2.68-.62-.5-.92-.75-1.55-1.24-.28-.2-.42-.3-.7-.51-.35-.23-.53-.35-.88-.57-.74-.42-1.32-.71-1.74-.87-.17-.07-.26-.1-.43-.17-.11-.06-.26-.09-.41-.13-.17-.04-.28-.08-.3-.07-.12,0-.19-.01-.31-.02-1.04-.12-1.7.18-1.99.91.92.51,1.37.76,2.28,1.29.15.08.23.13.39.21.1.06.15.08.26.14.08.08.12.11.2.19.14.11.22.17.36.28.18.15.27.23.44.38,1.01.95,1.68,1.91,1.99,2.85.28.86.25,1.91-.08,3.11-.62,1.92-.93,2.88-1.55,4.8-.23.65-.32,1.26-.3,1.84.03.58.25.99.66,1.25.47.29.71.44,1.18.74-.51,1.08-.76,1.62-1.27,2.7ZM355.19,62.51c-.05.09-.08.13-.14.22-.04.09-.06.13-.1.22-.05.1-.07.15-.12.25-.02.07-.04.1-.06.17-.34-.27-.5-.41-.84-.67-.45-.34-.68-.51-1.13-.85-.33-.19-.49-.28-.82-.47-.57-.35-.86-.53-1.43-.87-.98-.55-1.85-.96-2.58-1.24-.43-.17-.8-.3-1.1-.39-.3-.09-.61-.15-.94-.17.05-.41.08-.61.13-1.02.71.18,1.54.47,2.49.87.95.4,1.93.89,2.96,1.46.41.27.62.41,1.03.68.33.19.5.29.84.48.21.12.31.18.51.3.14.11.21.17.35.29.38.29.57.44.95.74Z"/>
    <path d="M367.79,91.02c-.71,1.2-1.67,1.94-2.85,2.27-1.28.35-2.5.09-3.68-.82-.69-.53-1.23-1.23-1.66-2.04-.32-.61-.54-1.88-.54-1.88-.05-.02-.83.38-1.42.42-.66.04-1.36-.21-2.02-.67-.89-.63-1.53-1.28-1.93-1.97-.34-.58-.61-1.96-.61-1.96-.07-.03-.96.48-1.58.49-.61.01-1.22-.17-1.82-.56-.44-.28-.66-.42-1.1-.69.5-1.08.75-1.62,1.26-2.71.39.25.59.37.98.62.34.21.77.22,1.32.03.54-.19.92-.5,1.14-.94.04-.1.06-.15.1-.25.83-3.14,1.23-4.72,2.02-7.88,1.13.29,1.7.44,2.83.76-.73,2.82-1.11,4.23-1.88,7.03-.43,1.44-.61,2.33-.61,2.58,0,1.09.19,2.05.93,2.57.45.31.92.37,1.36.15.23-.11.44-.28.63-.48.11-.14.16-.21.27-.34.1-.16.15-.24.25-.4.06-.12.09-.19.15-.31.07-.12.11-.25.13-.39.8-2.86,1.19-4.29,1.96-7.16,1.16.29,1.74.45,2.9.78-.8,2.88-1.21,4.32-2.05,7.19-.4,1.28-.58,2.2-.6,2.68-.05,1.17.17,2.06.84,2.58.44.34.92.38,1.46.14.54-.24.95-.62,1.25-1.14.07-.12.1-.18.17-.29.07-.12.12-.29.14-.5.55-2.93.81-4.4,1.31-7.36,1.14.3,1.72.46,2.87.8-.45,3.13-.69,4.7-1.2,7.81-.1.39-.16.58-.26.97-.11.23-.16.35-.27.59-.07.12-.1.17-.17.29ZM369.06,74.03c-.09.13-.15.19-.24.32-.29.42-.44.63-.73,1.04-.36.57-.54.85-.89,1.42-.28-.3-.42-.45-.7-.74-.37-.33-.56-.49-.93-.81-.36-.26-.54-.39-.89-.65-.66-.5-1-.75-1.66-1.24-.69-.46-1.04-.69-1.74-1.15-.25-.17-.37-.25-.62-.42-.29-.12-.43-.18-.71-.3.55-1.24.83-1.86,1.38-3.11.32.14.48.21.79.36.33.2.5.31.84.51.5.34.74.51,1.24.86.46.29.7.44,1.16.74.56.43.83.64,1.39,1.08.37.27.55.41.92.68.18.16.28.24.46.4.15.11.27.24.35.34.14.16.36.39.57.67ZM367.21,71.09c-.25-.22-.37-.33-.62-.55-.37-.26-.55-.4-.91-.66-.6-.43-1.14-.76-1.62-1.02.58-1.15.88-1.72,1.46-2.87.1.04.15.07.24.11.19.09.28.14.47.23.42.28.63.42,1.05.7.16.11.24.17.39.28.19.15.28.22.47.37.24.21.36.31.6.52-.61,1.15-.91,1.72-1.52,2.87Z"/>
    <path d="M373.53,102.91c-1.06-.98-1.59-1.47-2.65-2.42-1.1-.99-1.71-2.22-1.83-3.74-.12-1.59.29-3.17,1.26-4.75,1.29-2.11,2.82-4.06,4.47-5.82.9-.96,1.82-1.9,2.79-2.75.96-.85,1.88-1.53,2.74-2.03.82,1.19,1.23,1.8,2.05,3.01-.85.5-2.01,1.38-3.46,2.66-.66.66-.99.99-1.66,1.65-.7.77-1.05,1.16-1.74,1.94-.58.72-.86,1.08-1.44,1.81-.43.62-.65.93-1.08,1.55-.71,1.13-1,2.09-.86,2.89.11.65.53,1.3,1.26,1.96.71.64,1.06.97,1.77,1.62-.65.97-.97,1.46-1.62,2.43Z"/>
    <path d="M382.6,104.7c-.38.52-.82.94-1.33,1.24-.5.31-1.09.49-1.74.58-1.27.17-2.41-.21-3.41-1.17-1.35-1.3-2.02-1.93-3.37-3.17.64-.97.96-1.46,1.61-2.44,1.04.96,1.56,1.45,2.61,2.44.44.42.98.6,1.62.56.64-.04,1.14-.32,1.5-.83.15-.22.26-.45.33-.69.81-3.1,1.2-4.66,1.95-7.79,1.21.47,1.83.72,3.06,1.23-.33,1.46-.49,2.19-.83,3.64-.35,1.35-.53,2.03-.88,3.38-.16.59-.25.89-.41,1.48-.15.58-.39,1.09-.71,1.53ZM374.6,111.63c-.21-.26-.33-.38-.54-.64-.32-.32-.49-.47-.81-.79-.53-.51-1.01-.93-1.44-1.25.71-1.04,1.06-1.56,1.77-2.61.08.05.12.08.2.13.18.12.27.19.45.31.37.33.56.5.94.83.14.13.21.2.35.34.17.16.25.25.42.41.21.24.32.36.53.61-.75,1.06-1.12,1.59-1.87,2.64Z"/>
  </g>
  <g>
    <path d="M200.23,443.91c-.83-.2-1.25-.3-2.08-.51.06.2.09.3.16.5.02.11.02.17.04.27-.01.12-.02.17-.02.29-.19.77-.91,1.3-2.16,1.57-1.25.27-2.73.17-4.44-.3-3.53-.99-4.93-2.71-4.22-5.02.17-.57.72-1.34,1.56-2.31.79-.91,1.7-1.79,2.59-2.59.8-.72,1.54-1.37,2.21-1.84.54.57.81.85,1.35,1.42-.45.37-1.11.92-1.97,1.68-.39.35-.77.69-1.11,1.03-.34.34-.69.7-1.03,1.08-.34.38-.63.74-.85,1.07-.22.33-.36.58-.41.73-.24.82-.09,1.56.47,2.1.4.4,1.21.75,2.32,1.06.05.01.07.02.12.03.16.05.24.07.4.11.09.03.14.04.24.07.07,0,.11,0,.18,0,.14.02.21.03.35.04.07,0,.11,0,.19.02.2,0,.3,0,.5,0,.88-.01,1.37-.22,1.48-.63.06-.22-.03-.47-.25-.72-.22-.24-.51-.41-.85-.5.19-.72.29-1.08.48-1.8,2.07.56,3.11.82,5.2,1.33-.17.72-.26,1.08-.44,1.81Z"/>
    <path d="M212.11,443.28c-.16.85-.68,1.49-1.56,1.92-.92.45-2.06.54-3.42.25-1.01-.21-1.73-.51-2.13-.91-.27-.26-.43-1.06-.46-1.07-.07-.04-1.1.37-2.01.49-.91.12-1.67.1-2.28-.05-.28-.07-.42-.1-.69-.17.18-.72.27-1.08.44-1.81.27.07.41.1.68.17,1.24.3,2.56,0,3.93-.88,1.21-.78,2.12-1.76,2.74-2.94.58.37.87.55,1.45.92-.03.14-.05.2-.08.34-.02.05-.02.08-.04.14-.05.1-.08.15-.13.25-.08.19-.22.39-.41.62-.38.43-.57.65-.96,1.07-.35.39-.55.71-.6.96-.04.2,0,.44.17.65.15.2.46.34.85.42.55.11,1.06.07,1.55-.12.48-.2.76-.49.84-.87.03-.16,0-.38-.08-.66-.77-1.85-1.14-2.78-1.87-4.64.75-.22,1.13-.33,1.87-.56.76,1.89,1.15,2.83,1.96,4.72.12.29.2.6.24.93.04.33.04.6,0,.83Z"/>
    <path d="M223.12,448.16c-.34-.04-.51-.07-.85-.11-.73-.1-1.27-.27-1.61-.49-.23-.15-.58-.77-.63-.79-.08-.02-.64.4-1.09.52-.45.12-.93.14-1.42.07-1.48-.23-2.22-.35-3.7-.61.13-.73.19-1.1.32-1.83.22.04.33.06.56.1.06-.41.08-.6.14-1.01.09-.73.14-1.1.24-1.84.03-.19.05-.36.07-.52.04-.55.07-.85.07-.89.01-.06.02-.09.03-.15,0-.05.01-.11.01-.2,0-.19,0-.29,0-.48,0-.17,0-.26.01-.43.01-.06.01-.14,0-.22,0-.09-.02-.16-.02-.22-.04-1.11,0-2.3-.11-3.32.83-.08,1.25-.12,2.08-.21.11,1.03.13,2.38.06,4.05-.02.55-.04.82-.06,1.37-.01.35-.04.67-.09.98-.06.42-.08.63-.14,1.06-.04.38-.06.57-.11.94-.11.69-.22,1.16-.31,1.41.26.04.39.07.66.11.62.1,1.13,0,1.52-.28.39-.29.63-.72.71-1.29.16-1.08.23-2.54.23-4.37,0-1.84-.1-3.39-.26-4.66.75-.15,1.13-.22,1.87-.38.23,1.34.37,2.9.4,4.66.03,1.76-.05,3.4-.26,4.91-.08.54-.07.95,0,1.24.15.55.55.87,1.19.96.29.04.44.06.73.1-.1.74-.14,1.11-.24,1.85Z"/>
    <path d="M237.08,446.2c-.06.88-.41,1.62-1.03,2.21-.68.65-1.54.94-2.57.85-.6-.05-1.17-.24-1.68-.54-.39-.22-.88-.84-.9-.84-.04,0-.43.47-.81.67-.43.23-.97.31-1.54.25-.77-.08-1.39-.26-1.85-.53-.38-.23-.91-.92-.93-.92-.06,0-.54.53-.96.7-.42.17-.9.22-1.42.15-.38-.05-.57-.07-.95-.12.1-.74.15-1.11.25-1.84.33.04.5.06.83.11.28.04.59-.07.91-.31.33-.25.51-.52.54-.83,0-.07,0-.1,0-.17-.2-1.98-.29-2.97-.47-4.95.79-.13,1.18-.19,1.96-.33.17,1.77.26,2.66.45,4.43.07.92.18,1.46.24,1.6.27.59.66,1.08,1.29,1.15.38.04.71-.07.94-.32.12-.13.21-.29.28-.46.03-.11.05-.16.08-.27.02-.12.03-.18.05-.29,0-.09,0-.13.01-.21,0-.09,0-.17-.02-.25-.24-1.8-.36-2.7-.59-4.5.79-.18,1.18-.26,1.96-.45.24,1.8.37,2.7.63,4.5.1.82.25,1.37.37,1.63.29.64.7,1.04,1.27,1.09.37.03.69-.11.95-.42.26-.31.41-.66.44-1.04,0-.09,0-.13.02-.21,0-.09-.01-.19-.06-.31-.52-1.73-.78-2.6-1.28-4.33.76-.21,1.14-.33,1.89-.55.6,1.78.9,2.68,1.53,4.46.06.24.08.36.14.6,0,.16.01.24.02.4,0,.09,0,.13-.01.21Z"/>
    <path d="M242.35,449.8c-.8-.03-1.2-.05-1.99-.09.03-.2.04-.3.07-.51.01-.25.02-.38.03-.62.09-1.76,0-3.84-.23-6.23-.06-.67-.11-1.26-.17-1.75-.05-.49-.12-.98-.2-1.47-.15-.94-.3-1.74-.47-2.38.81-.1,1.22-.15,2.03-.26.05.28.08.42.13.7.05.35.07.52.12.86.1.85.15,1.27.25,2.12.16,1.66.28,3.36.37,5.1,0,.56.01.84.02,1.39,0,.43,0,.64,0,1.07,0,.41,0,.62,0,1.03.02.41.03.62.05,1.04Z"/>
    <path d="M255.26,447.44c.01.68-.18,1.27-.59,1.75-.44.52-1.07.79-1.86.8-1.69.01-2.54,0-4.24-.01,0-.74.01-1.12.02-1.86,1.46.02,2.2.02,3.66.01.25,0,.46-.08.56-.24.12-.19.18-.41.17-.59,0-.21-.05-.39-.14-.52-1.45-1.84-2.15-2.76-3.54-4.62.61-.47.91-.71,1.51-1.19,1.49,1.9,2.25,2.85,3.8,4.72.41.5.62,1.08.63,1.75Z"/>
    <path d="M260.77,449.78c-.8.04-1.19.05-1.99.08.01-.2.02-.31.03-.51,0-.25-.01-.37-.02-.62-.06-1.76-.33-3.83-.75-6.19-.12-.67-.22-1.25-.32-1.73-.09-.48-.21-.97-.32-1.45-.23-.92-.44-1.7-.67-2.33.8-.17,1.2-.26,2-.43.07.28.11.41.19.69.08.34.12.51.19.85.17.84.25,1.25.43,2.09.3,1.64.56,3.32.8,5.05.05.55.08.83.14,1.39.04.43.06.64.09,1.07.03.41.04.62.08,1.03.05.41.08.62.14,1.03Z"/>
    <path d="M263.86,439.33c-.2,0-.3-.01-.5-.02-.28.02-.41.02-.69.04-.45.03-.85.07-1.18.12-.04-.8-.06-1.2-.1-2.01.06-.02.09-.02.16-.04.13-.03.19-.04.32-.07.3-.03.45-.04.75-.07.12,0,.17-.01.29-.02.14,0,.21,0,.35,0,.19,0,.28,0,.47.01.05.82.07,1.23.12,2.04ZM266.55,447.44c.08,1.13-.06,2.19-.43,3.19-.37,1-.97,1.95-1.8,2.84-.68-.43-1.01-.64-1.68-1.07.59-.77,1.06-1.59,1.41-2.46.34-.86.48-1.77.42-2.72,0-.16-.01-.24-.02-.39,0-.08,0-.12-.01-.2,0-.06,0-.12-.01-.16-.01-.05-.04-.09-.05-.11-.04-.14-.06-.21-.1-.35-.03-.13-.1-.31-.18-.5-.15-.36-.35-.87-.63-1.47-.51-1.1-.76-1.65-1.26-2.75.69-.37,1.04-.56,1.72-.94.56,1.26.85,1.88,1.43,3.14.17.42.26.63.44,1.05.13.34.26.7.37,1.06.23.71.36,1.33.4,1.84Z"/>
    <path d="M274.51,432.05c-.75.87-1.67,1.48-2.73,1.83-1,.17-1.5.25-2.51.41-.93.17-1.78.58-2.55,1.25-.53-.49-.79-.74-1.31-1.24.79-.83,1.71-1.37,2.77-1.63,1.05-.16,1.57-.24,2.62-.41.98-.19,1.79-.63,2.41-1.31.52.44.78.66,1.3,1.1ZM274.17,448.78c-.79.08-1.19.12-1.98.2,0-.21,0-.31,0-.51-.02-.25-.04-.37-.06-.62-.17-1.75-.56-3.8-1.13-6.13-.16-.66-.3-1.23-.42-1.71-.12-.48-.27-.95-.41-1.43-.28-.91-.55-1.68-.81-2.29.79-.22,1.18-.33,1.97-.55.09.27.14.41.23.68.1.33.15.5.24.84.22.82.33,1.24.56,2.06.4,1.62.77,3.28,1.11,4.99.09.55.13.82.22,1.37.06.42.09.64.16,1.06.06.41.09.61.14,1.02.08.41.12.61.2,1.02Z"/>
    <path d="M288.22,443.89c.13.76.03,1.46-.33,2.08-.39.67-.97,1.08-1.73,1.2-1.02.17-1.53.25-2.55.4-.87.13-1.56-.01-2.05-.42-.44-.36-.71-.92-.81-1.65-.07-.51-.03-1.23.11-2.16.14-.93.33-1.66.58-2.18.73.18,1.09.26,1.82.43-.06.22-.18.78-.36,1.7-.05.36-.07.54-.12.9,0,.04,0,.13,0,.28,0,.15,0,.25,0,.28.05.32.15.57.3.74.15.17.35.23.6.2.69-.1,1.03-.16,1.72-.27.3-.05.54-.21.67-.47.15-.29.19-.58.15-.81-.04-.26-.26-.62-.65-1.07-.48-.55-1.05-1.04-1.69-1.47-.8-.53-1.69-.96-2.69-1.27.34-.64.5-.96.83-1.6,1.2.21,2.47.88,3.83,1.99,1.4,1.14,2.2,2.2,2.38,3.19Z"/>
    <path d="M295.97,445.34c-.91.19-1.37.28-2.28.47-.95.19-1.79,0-2.51-.56-.75-.59-1.22-1.48-1.43-2.63-.28-1.54-.39-3.14-.38-4.72,0-.86.02-1.72.09-2.56.06-.84.16-1.59.31-2.24.79.08,1.19.12,1.99.19-.12.64-.22,1.6-.29,2.88,0,.61,0,.92,0,1.53.03.68.04,1.02.06,1.7.05.59.08.89.13,1.49.07.48.11.71.18,1.19.16.83.44,1.37.85,1.63.33.2.8.25,1.42.12.6-.12.89-.18,1.49-.31.15.73.23,1.09.38,1.82Z"/>
    <path d="M307.16,442.68c-.55.15-.82.22-1.37.36-.28.07-.55.08-.81,0s-.51-.19-.76-.35c-.1.13-.14.2-.24.33-.14.15-.21.22-.35.37-.23.18-.52.32-.85.4-2.98.73-4.48,1.06-7.48,1.68-.15-.73-.23-1.09-.38-1.82,2.68-.55,4.02-.85,6.69-1.5.36-.09.66-.29.82-.59.11-.2.12-.48.04-.78-.02-.1-.04-.14-.06-.24-.4-1-.6-1.49-1-2.49-.14-.32-.39-.57-.72-.76-.34-.19-.8-.3-1.38-.33-.13,0-.2.01-.34.02-.13,0-.27.03-.45.07-.47.09-.7.13-1.16.22-.41.09-.69.17-.84.23-.09.02-.13.03-.22.05-.07.03-.11.04-.19.07-.34.08-.64.03-.87-.13-.21-.15-.36-.42-.43-.77-.02-.12-.03-.18-.05-.3,0-.13,0-.19,0-.32,0-.36,0-.54-.01-.9.01-.47.16-.91.46-1.32.3-.41.69-.78,1.18-1.09.16-.07.24-.1.4-.17.32-.12.48-.17.8-.29.28-.07.43-.1.71-.17.23-.08.34-.12.57-.21,1.15-.27,2.06-.42,2.74-.45.18.71.27,1.06.45,1.77-.5.06-.76.08-1.26.14-.22.03-.33.05-.55.08-.27.05-.4.07-.67.12-.54.13-.95.25-1.23.35-.12.04-.17.06-.29.1-.08.02-.17.07-.26.11-.1.05-.18.08-.19.1-.07.05-.1.08-.17.12-.59.38-.84.8-.73,1.28.68-.14,1.02-.21,1.7-.36.11-.03.17-.04.29-.07.08-.02.11-.03.19-.05.07,0,.11,0,.18,0,.12-.01.18-.01.3-.03.15,0,.22-.01.37-.02.89,0,1.62.13,2.15.42.49.26.89.75,1.2,1.45.45,1.16.68,1.73,1.14,2.88.15.4.35.72.61.96.26.24.56.32.89.23.39-.1.58-.15.97-.26.19.72.29,1.08.48,1.8ZM301.32,430.3c0,.07,0,.1.02.17.01.06.02.09.04.15.02.07.03.1.04.17.02.04.02.06.04.11-.27.03-.4.04-.67.07-.35.04-.52.07-.87.11-.23.06-.35.09-.58.14-.41.09-.62.13-1.04.22-.69.16-1.28.34-1.76.51-.28.1-.52.19-.71.27-.19.08-.37.18-.54.3-.11-.22-.17-.33-.29-.55.43-.2.96-.4,1.58-.61.62-.21,1.29-.39,2.01-.56.3-.05.45-.08.76-.13.24-.06.35-.09.59-.15.15-.04.22-.05.36-.09.11-.01.16-.02.28-.03.3-.04.44-.05.74-.09Z"/>
    <path d="M322.87,437.86c-.53.18-.79.28-1.32.46-.32.11-.72.14-1.19.07-.27-.04-.95-.37-1.07-.32-.11.04-.44.68-.83,1-.39.32-.81.54-1.27.69-.58.18-1.18.23-1.77.15-.45-.06-1.14-.43-1.15-.43-.04.02-.25.6-.58.94-.38.39-.8.65-1.26.79-.75.22-1.39.29-1.92.21-.44-.07-1.19-.51-1.21-.5-.06.02-.3.7-.63,1.01-.33.32-.75.54-1.25.68-.37.1-.55.15-.92.24-.19-.72-.28-1.08-.47-1.8.32-.08.48-.13.81-.21.27-.07.52-.29.73-.64.21-.35.27-.68.18-.97-.02-.06-.03-.09-.05-.16-.93-1.76-1.4-2.64-2.31-4.4.68-.42,1.02-.63,1.69-1.05.83,1.57,1.25,2.36,2.1,3.92.42.82.72,1.29.83,1.39.49.45,1.03.75,1.63.58.37-.11.63-.33.75-.66.06-.17.08-.35.09-.53,0-.11-.01-.17-.02-.28-.03-.12-.04-.17-.06-.29-.03-.08-.04-.12-.07-.2-.03-.09-.06-.16-.11-.22-.91-1.57-1.36-2.36-2.26-3.94.66-.47.98-.71,1.63-1.19.91,1.58,1.38,2.37,2.31,3.94.41.72.75,1.17.96,1.37.51.48,1.05.7,1.6.53.36-.11.6-.37.73-.76.12-.39.12-.76,0-1.12-.03-.08-.05-.12-.08-.2-.03-.09-.08-.17-.17-.27-1.14-1.4-1.7-2.11-2.82-3.53.62-.5.92-.75,1.53-1.25,1.54,1.83,2.32,2.73,3.89,4.54.33.4.61.63.76.72.37.21.74.34,1.06.23.36-.12.53-.18.89-.31.25.7.37,1.05.61,1.76ZM312.15,428.41c.02.1.03.15.05.26.06.32.1.48.16.79.1.41.15.62.25,1.03-.25.03-.37.04-.61.07-.3.07-.45.1-.74.16-.27.08-.4.12-.67.2-.5.14-.75.2-1.26.34-.5.16-.76.24-1.26.4-.18.05-.27.08-.46.13-.18.09-.27.13-.46.22-.26-.81-.39-1.21-.65-2.01.2-.09.3-.14.5-.24.23-.08.35-.12.58-.2.36-.1.54-.15.9-.26.32-.11.48-.17.8-.28.42-.11.62-.16,1.04-.27.27-.08.4-.12.67-.2.14-.03.21-.04.36-.08.11-.03.21-.04.29-.05.12,0,.31-.03.52-.03ZM310.15,428.19c-.19.04-.29.06-.49.09-.26.08-.39.12-.66.19-.43.13-.8.25-1.11.39-.22-.77-.33-1.16-.56-1.93.06-.03.08-.05.14-.08.12-.05.17-.08.29-.13.29-.09.43-.14.72-.23.11-.03.16-.05.27-.08.14-.03.2-.05.34-.08.18-.04.28-.06.46-.09.24.78.36,1.17.59,1.96Z"/>
    <path d="M326.76,432.99c.15.39.22.78.22,1.18s-.08.81-.25,1.24c-.32.82-.89,1.4-1.71,1.69-1.12.4-1.68.6-2.8.99-.24-.7-.36-1.06-.61-1.76.85-.29,1.28-.44,2.13-.75.36-.13.63-.39.82-.79.19-.4.21-.79.07-1.17-.06-.16-.14-.3-.23-.41-1.26-1.46-1.88-2.2-3.11-3.68.6-.55.89-.83,1.48-1.38.59.66.88.99,1.48,1.65.54.64.82.95,1.37,1.58.24.28.36.42.6.7.24.27.42.57.54.9ZM322.32,427.2c-.2.05-.29.07-.49.12-.26.09-.39.14-.66.24-.43.15-.8.31-1.11.46-.27-.76-.4-1.14-.67-1.9.06-.03.08-.05.14-.08.12-.06.17-.09.29-.16.28-.12.43-.18.71-.3.11-.04.16-.06.27-.1.14-.03.21-.05.35-.08.18-.05.27-.08.46-.12.28.77.42,1.15.7,1.92Z"/>
    <path d="M333.09,434c-.75.3-1.12.45-1.87.75-.06-.2-.09-.29-.14-.49-.09-.23-.14-.35-.23-.58-.65-1.63-1.6-3.5-2.79-5.58-.34-.59-.63-1.1-.88-1.52-.25-.42-.52-.84-.8-1.26-.52-.79-.99-1.46-1.41-1.97.71-.43,1.06-.65,1.76-1.09.16.23.25.35.41.58.19.29.28.44.47.74.44.73.66,1.1,1.1,1.83.83,1.44,1.65,2.94,2.46,4.49.24.5.36.75.59,1.26.18.39.27.59.44.98.17.38.25.57.42.95.19.37.29.55.47.92Z"/>
    <path d="M339.91,428.34c.28.62.33,1.24.14,1.84-.21.66-.69,1.16-1.42,1.48-1.57.69-2.36,1.03-3.95,1.69-.29-.69-.43-1.03-.71-1.72,1.37-.57,2.05-.86,3.41-1.45.23-.1.39-.26.43-.44.04-.23,0-.45-.07-.61-.08-.19-.2-.34-.34-.42-2.07-1.11-3.1-1.67-5.12-2.82.38-.68.56-1.02.93-1.7,2.14,1.15,3.21,1.71,5.4,2.81.58.29,1.01.74,1.29,1.35Z"/>
  </g>
</svg>