<?xml version="1.0" encoding="UTF-8"?>
<svg id="Layer_1" data-name="Layer 1" xmlns="http://www.w3.org/2000/svg" viewBox="0 0 7506.11 7556.83">
  <defs>
    <style>
      .cls-1 {
        fill: #fff;
      }
    </style>
  </defs>
  <path class="cls-1" d="M1913.43,4375.73l-451.02-450.11v-1128.45c0-26.51,21.49-48,48-48h355.02c26.51,0,48,21.49,48,48v1578.57Z"/>
  <path class="cls-1" d="M5060.03,2746.4h-1340.12c-30.58,0-55.38,24.79-55.38,55.38h0c0,17.21,8,33.44,21.65,43.91,34.41,26.4,67.13,55.29,98.01,86.6,49.52,50.2,92.91,105.15,129.81,164.32,10.12,16.22,27.87,26.1,46.99,26.1h233.34v1465.81c0,24.01,19.46,43.47,43.47,43.47h360c24.01,0,43.47-19.46,43.47-43.47v-1465.81h418.74c30.58,0,55.38-24.79,55.38-55.38v-265.55c0-30.58-24.79-55.38-55.38-55.38Z"/>
  <path class="cls-1" d="M3679.21,3017.31c-6.62-8.1-67.54-80.58-181.06-151.36-65.6-40.9-136.3-73.43-210.12-96.69-91.6-28.86-188.38-43.5-287.65-43.5s-196.05,14.64-287.65,43.5c-73.83,23.26-144.52,55.79-210.13,96.69-113.32,70.64-174.47,143.28-181.05,151.31-18.8,22.9-27.56,51.75-24.66,81.24,2.9,29.49,17.11,56.08,40.01,74.89,20.03,16.45,44.61,25.21,70.19,25.21,3.67,0,7.36-.18,11.05-.54,29.49-2.9,56.08-17.11,74.85-39.96.44-.54,45.34-54.45,131.71-107.23,112.14-68.52,238.54-103.26,375.69-103.26s263.23,34.68,375.27,103.06c85.56,52.23,129.72,104.64,132.06,107.45,21.15,25.66,52.33,40.36,85.53,40.36.04,0,.09,0,.13,0,25.54,0,50.49-8.91,70.25-25.08,22.93-18.76,37.18-45.33,40.12-74.82,2.94-29.48-5.77-58.35-24.53-81.27Z"/>
  <path class="cls-1" d="M3433.57,3451.94c-26.57,0-51.71-11.58-68.97-31.77l-.38-.45-.41-.43c-91.77-95.28-220.28-149.92-352.58-149.92-3.44,0-6.93.04-10.38.11h-.48s-.48,0-.48,0c-3.46-.07-6.97-.11-10.43-.11-132.56,0-261.24,54.82-353.04,150.41l-.23.24-.22.24c-16.04,17.83-38.06,28.46-62.02,29.93-1.9.12-3.82.18-5.71.18-22.11,0-43.45-8.1-60.09-22.82-17.32-15.32-28.07-36.44-30.27-59.46-2.2-23.02,4.36-45.79,18.47-64.12l.63-.82.7-.76c126.73-136.52,306.27-214.82,492.57-214.82,3.34,0,6.54.02,9.8.07h.29s.29,0,.29,0c3.27-.05,6.59-.07,9.86-.07,186.26,0,365.78,78.3,492.51,214.82l.48.52.45.55c31.74,38.79,26.01,96.19-12.78,127.94-16.16,13.23-36.56,20.53-57.44,20.56h-.17Z"/>
  <path class="cls-1" d="M3251.02,3693.4c-24.24,0-47.77-11.34-62.96-30.33l-.61-.76-.66-.72c-45.08-49.39-106.68-78.48-173.48-81.93-4.41-.23-8.87-.34-13.27-.34-62.41,0-122.38,23.09-168.86,65.01-6.08,5.48-11.96,11.33-17.48,17.39l-.59.64-.55.68c-13.31,16.43-32.22,26.85-53.25,29.36-3.26.39-6.56.59-9.81.59-18.17,0-35.4-6-49.82-17.34-16.72-13.15-27.44-32.01-30.2-53.1s2.75-42.07,15.52-59.08l.23-.31.25-.29c36.2-42.5,79.64-76.64,129.12-101.48,47.79-23.99,99.16-38.32,152.69-42.61,11.15-.89,22.44-1.35,33.54-1.35,42.05,0,83.76,6.43,123.99,19.1,52.8,16.64,101.13,43.43,143.62,79.63,16.74,14.25,32.45,29.97,46.7,46.7l.22.26.2.27c27.07,35.47,20.23,86.35-15.24,113.42-14.02,10.7-31.46,16.59-49.09,16.59h-.23Z"/>
  <path class="cls-1" d="M3000.38,4016.89c-82.35,0-149.34-66.99-149.34-149.34s66.99-149.34,149.34-149.34,149.34,67,149.34,149.34-67,149.34-149.34,149.34Z"/>
  <path class="cls-1" d="M3896.54,3327.56c-7.67-18.14-15.86-35.99-24.56-53.54-33.34-67.24-122.7-82.09-175.77-29.02l-.84.84c-33.41,33.41-41.44,84.38-20.42,126.69,46.48,93.58,74.05,198.14,77.68,308.65,14.26,434.48-343.53,791.9-778,777.21-403.13-13.63-726.88-345.82-726.88-752.21,0-118.28,27.43-230.28,76.25-329.96,20.73-42.31,12.34-93.11-20.97-126.43h0c-53.38-53.38-143.58-38.53-176.73,29.29-7.78,15.91-15.14,32.07-22.07,48.47-50.75,119.98-76.48,247.37-76.48,378.63s25.73,258.65,76.48,378.63c48.99,115.83,119.11,219.84,208.4,309.13,88.31,88.31,191.03,157.85,305.34,206.77l-106.75,106.75h-418.52l-862.08-862.08-2.45,2.45c5.35-13.01,8.31-27.25,8.31-42.17,0-61.35-49.91-111.26-111.26-111.26s-111.26,49.91-111.26,111.26,49.91,111.26,111.26,111.26c14.92,0,29.16-2.96,42.17-8.31l-7.48,7.48,891.85,891.85,3.87-3.87v3.4h497.21v-.19l168.93-168.93c89.93,26.89,183.25,40.49,278.62,40.49,131.26,0,258.65-25.73,378.63-76.48,115.83-48.99,219.84-119.11,309.13-208.4s159.41-193.3,208.4-309.13c50.75-119.98,76.48-247.37,76.48-378.63s-25.73-258.65-76.48-378.63ZM1125.21,3841.91c-19.99,0-36.26-16.26-36.26-36.26s16.26-36.26,36.26-36.26,36.26,16.27,36.26,36.26-16.27,36.26-36.26,36.26Z"/>
  <path class="cls-1" d="M1877.82,4832.82c-11.67,0-22.91,1.81-33.49,5.15l-601.65-601.65-4.3,4.3c5.76-13.43,8.96-28.21,8.96-43.72,0-61.35-49.91-111.26-111.26-111.26s-111.26,49.91-111.26,111.26,49.91,111.26,111.26,111.26c15.51,0,30.29-3.2,43.72-8.96l-7.83,7.83,600.69,600.69c-3.95,11.4-6.1,23.62-6.1,36.35,0,61.35,49.91,111.26,111.26,111.26s111.26-49.91,111.26-111.26-49.91-111.26-111.26-111.26ZM1136.08,4233.16c-19.99,0-36.26-16.26-36.26-36.26s16.27-36.26,36.26-36.26,36.26,16.26,36.26,36.26-16.26,36.26-36.26,36.26ZM1877.82,4980.33c-19.99,0-36.26-16.26-36.26-36.26s16.27-36.26,36.26-36.26,36.26,16.26,36.26,36.26-16.26,36.26-36.26,36.26Z"/>
</svg>