<?xml version="1.0" encoding="UTF-8"?>
<svg id="Layer_1" data-name="Layer 1" xmlns="http://www.w3.org/2000/svg" xmlns:xlink="http://www.w3.org/1999/xlink" viewBox="0 0 2695.68 2703.11">
  <defs>
    <style>
      .cls-1 {
        fill: url(#linear-gradient-2);
      }

      .cls-2 {
        fill: #02bbd8;
      }

      .cls-3 {
        fill: #11b9d8;
      }

      .cls-4 {
        fill: #2175bc;
      }

      .cls-5 {
        fill: url(#linear-gradient);
      }
    </style>
    <linearGradient id="linear-gradient" x1="2055.66" y1="987.43" x2="2055.66" y2="0" gradientUnits="userSpaceOnUse">
      <stop offset="0" stop-color="#10bbe3"/>
      <stop offset=".24" stop-color="#10b6e0"/>
      <stop offset=".49" stop-color="#13aad9"/>
      <stop offset=".75" stop-color="#1695ce"/>
      <stop offset="1" stop-color="#1c79be"/>
    </linearGradient>
    <linearGradient id="linear-gradient-2" x1="988.45" y1="2703.1" x2="988.45" y2="125.7" gradientUnits="userSpaceOnUse">
      <stop offset="0" stop-color="#07bcd8"/>
      <stop offset="1" stop-color="#1d7bc0"/>
    </linearGradient>
  </defs>
  <g>
    <path class="cls-4" d="M2387.93,1113.78c53-42.58,106-85.16,159.12-127.57,30.33-24.25,60.58-48.54,84.02-80.05,36.62-49.19,58.96-104.14,62.73-165.37,2.55-41.69,1.42-83.62,1.87-125.42.04-3.4-.4-6.84-.73-11.74-3.42,2.09-5.48,3.06-7.22,4.48-27.7,22.18-55.35,44.4-83.05,66.63-112.37,90.19-224.69,180.41-337.14,270.52-3.66,2.94-7.54,5.31-11.54,7.14l-13.38,35.04h61.87l-4.41,263.82-41.3,34.4v346.42l70.28-70.28c64.5-51.91,129.13-103.62,193.35-155.85,33.33-27.13,68.94-51.66,96.71-85.12,47.73-57.5,73.88-123.23,75.02-198.25.57-38.24.12-76.44.08-114.68,0-3.37-.37-6.77-.69-12.04-6.12,4.7-10.66,7.99-15.04,11.52-76.72,61.56-153.4,123.11-230.09,184.75-13.22,10.62-28.02,15.21-44.61,10.99-19.42-4.91-31.95-17.44-36.41-37.14-4.91-21.9,3.85-38.77,20.56-52.19Z"/>
    <path class="cls-4" d="M2385.03,608.16l.39.15-62.2,164.83c74-59.4,147.99-118.81,222.06-178.15,30.12-24.11,60.15-48.22,83.49-79.47,39.09-52.36,62.02-110.93,63.68-176.24,1.7-67.42.36-134.96.36-202.42,0-3.13-.36-6.25-.69-11.16-3.86,2.72-6.29,4.26-8.52,6.05-34.1,27.32-68.11,54.63-102.16,81.99-89.28,71.69-178.53,143.39-267.78,215.08l71.79,179.17-.43.17Z"/>
    <polygon class="cls-4" points="1809.99 2703.02 2203.25 2703.02 2203.25 1331.43 1809.99 1656.55 1809.99 2703.02"/>
    <path class="cls-4" d="M2246.84,1038.91h-362.82c-1.68,0-3.05,1.37-3.05,3.05v226.22c0,15.96-12.94,28.9-28.9,28.9h-2.54c-15.96,0-28.9-12.94-28.9-28.9v-264.11c0-15.96,12.94-28.9,28.9-28.9h5.59c3.55,0,6.93.72,10.01,2.02,2.46,1.04,5.01-1.16,4.2-3.7l-36.4-113.03c-.66-2.06-3.2-2.79-4.86-1.4l-179.9,150.94c-.69.58-1.09,1.43-1.09,2.34v1078.7c0,.36.06.72.19,1.06l112.6,304.24c1.18,3.19,5.91,2.34,5.91-1.06v-756.74l15.03-12.62,468-392.01c.69-.58,1.09-1.44,1.09-2.34v-189.61c0-1.68-1.37-3.05-3.05-3.05Z"/>
  </g>
  <path class="cls-5" d="M2083.94,0h-7.72v533.98c36.51,6.4,64.26,38.24,64.26,76.59,0,42.96-34.82,77.78-77.78,77.78s-77.78-34.82-77.78-77.78c0-38.54,28.04-70.52,64.83-76.69V.96h-6.56l-262.18,602.72,140.48,383.75h265.57l143.27-378.95L2083.94,0Z"/>
  <path class="cls-1" d="M1194.21,988.83h.58l-.86-.79-.23-.63h-.46l-180.74-164.91c-.06-.06-.11-.13-.17-.18-.29-.26-.59-.51-.88-.78l-.92-.84h-.01c-13.43-12.03-27.31-23.59-41.02-35.31-129.83-111.03-259.66-222.09-389.44-333.16-125.11-107.03-250.21-214.05-375.36-321.08-2.01-1.69-4.4-3-8.09-5.46-.18,5.95-.3,9.72-.42,13.53-1.96,63.03-4.16,126.08-5.69,189.12-.35,14.93.45,30.09,2.7,44.82,11.82,77.32,47.51,141.79,106.79,192.74,99.59,85.61,199.64,170.8,299.48,256.15,17.45,14.92,34.9,29.85,52.4,44.77,15.94,13.61,21.36,31.06,16.45,50.89-4.73,19.12-18.16,30.62-37.35,34.67-19.16,4.05-33.9-4.63-47.95-16.67-131.21-112.58-262.67-224.89-394.04-337.27-1.86-1.61-4.04-2.83-6.84-4.74-.75,2.52-1.47,3.85-1.51,5.16-.61,51.47-6.9,103,0,154.42,9.96,74.44,42.84,137.36,98.24,187.67,40.76,37.02,83.45,71.92,125.2,107.82,23.21,19.99,46.88,39.48,69.23,60.39,15.6,14.59,17.57,38.05,7.19,56.2-15.76,27.56-50.52,32.87-75.75,11.31-70.36-60.03-140.59-120.22-210.86-180.33-7.04-6.06-14.25-11.92-21.37-17.91l.08.08-2.38,1.16c-.11,3.49-.22,6.99-.33,10.48-1.16,37.39-2.49,74.81-3.41,112.2-.26,10.88-.16,21.84,1.05,32.61,9.3,81.57,44.15,150.19,106.27,204.09,75.63,65.6,151.86,130.58,227.86,195.8,5.93,5.11,12,10.14,18.48,15.53l-112.06,307.81,434.5,434.5h66.85l-379.93-379.93.04-.04h0s138.79-371.54,138.79-371.54c-10.23-10.26-16.55-24.42-16.55-40.06,0-31.34,25.41-56.75,56.75-56.75s56.75,25.41,56.75,56.75-23.23,54.49-52.65,56.59l-127.3,340.79,394.19,394.19h293.65l137.68,410.39h399.8v-21.18l-616.39-1693.08ZM738.29,1990.88l214.46-653.97,219.76,653.97h-434.22Z"/>
  <path class="cls-3" d="M147.14,1807.5c1.48-4.89,2.29-10.07,2.29-15.44,0-30.2-25.06-54.55-55.52-53.39-27.69,1.05-50.26,23.62-51.31,51.31-1.16,30.46,23.19,55.51,53.39,55.51,6.85,0,13.38-1.34,19.39-3.68l509.23,509.23,16.35-49.7-493.83-493.83ZM97.27,1812.29c-10.54,0-19.08-8.54-19.08-19.08s8.54-19.08,19.08-19.08,19.08,8.54,19.08,19.08-8.54,19.08-19.08,19.08Z"/>
  <path class="cls-3" d="M109.02,1629.28c2.89-6.8,4.48-14.29,4.48-22.14,0-31.34-25.41-56.75-56.75-56.75S0,1575.8,0,1607.14s25.41,56.75,56.75,56.75c5.78,0,11.35-.88,16.6-2.48l631.3,631.3h67.8L109.02,1629.28ZM56.75,1626.22c-10.54,0-19.08-8.54-19.08-19.08s8.54-19.08,19.08-19.08,19.08,8.54,19.08,19.08-8.54,19.08-19.08,19.08Z"/>
  <path class="cls-3" d="M315.1,2113.48l-14.64,40.21-139.01-139.16c3.31-7.21,5.21-15.2,5.21-23.65,0-31.34-25.41-56.75-56.75-56.75s-56.75,25.41-56.75,56.75,25.41,56.75,56.75,56.75c5.15,0,10.11-.75,14.84-2.03l157.6,157.81-174.21,478.5h0s0,0,0,0l-7.49,21.18h23.83s378.17,0,378.17,0l100.13-304.31-287.68-285.31ZM109.91,2009.96c-10.54,0-19.08-8.54-19.08-19.08s8.54-19.08,19.08-19.08,19.08,8.54,19.08,19.08-8.54,19.08-19.08,19.08Z"/>
  <circle class="cls-2" cx="708.48" cy="1501.14" r="19.08"/>
</svg>