<?xml version="1.0" encoding="UTF-8"?><svg id="b" xmlns="http://www.w3.org/2000/svg" viewBox="0 0 300 300"><defs><style>.d{fill:none;}.d,.e,.f{stroke-width:0px;}.e{fill:#0050a4;}.e,.f{fill-rule:evenodd;}.f{fill:#8c98cd;}</style></defs><g id="c"><rect class="d" width="300" height="300"/><path class="e" d="m197.36,135.23v124.91c-2.19-31.81-15.95-61.33-46.43-87.55-30.48,26.22-44.24,55.74-46.43,87.55v-124.91l-23.71-19.07c-8.93-7.38-11.64-15.57-12.07-23.56v-16.93l26.07,21.12c1.95,1.53,4.15-1.24,2.19-2.74l-17.89-14.22c-6.18-5.52-10.09-13.35-10.38-22.39v-15.79l41.56,33.41c2.04,1.73,4.37-.74,2.13-2.58l-31.86-25.47c-7.24-6.01-11.49-13.63-11.83-23.35V0l80.84,64.81v59.98c-1.42.55-2.43,1.93-2.43,3.55,0,2.1,1.7,3.8,3.8,3.8s3.8-1.7,3.8-3.8c0-1.62-1.01-3-2.43-3.55v-59.98S233.15,0,233.15,0v23.67c-.34,9.71-4.58,17.34-11.83,23.35l-31.86,25.47c-2.24,1.83.09,4.31,2.13,2.58l41.56-33.41v15.79c-.29,9.04-4.2,16.87-10.38,22.39l-17.89,14.22c-1.96,1.5.24,4.27,2.19,2.74l26.08-21.12v16.93c-.43,7.99-3.15,16.18-12.07,23.56l-23.71,19.07h0Zm-50.7-65.51v-3.61L71.48,5.64v19.07c.46,8.3,4.31,14.77,10.38,19.98l32.07,25.44c5.34,4.54-.78,10.99-5.71,6.57l-36.88-29.57v11.53c.33,8.2,5.26,16.17,10.61,20.35l16.71,13.08c4.6,3.97-1.09,10.12-5.4,6.66l-21.86-17.55v11.63c.25,8.91,4.76,16.33,11.87,21.96l21.65,17.33c4.18-26.84,18.48-47.4,41.74-62.4h0Zm-39.79,67.4v95.08c7.75-25.79,23.08-46.03,41.85-61.21l-41.85-33.86h0Zm48.33-67.4c23.26,15,37.56,35.56,41.74,62.4l21.65-17.33c7.11-5.63,11.62-13.05,11.87-21.96v-11.63l-21.86,17.55c-4.31,3.46-10-2.69-5.4-6.66l16.71-13.08c5.35-4.18,10.28-12.15,10.61-20.35v-11.53l-36.88,29.57c-4.93,4.42-11.05-2.03-5.71-6.57l32.07-25.44c6.07-5.21,9.92-11.68,10.38-19.98V5.64l-75.18,60.47v3.61h0Zm39.79,67.4l-41.85,33.86c18.77,15.18,34.1,35.43,41.85,61.21v-95.08Z"/><path class="f" d="m155.2,69.73v-3.61L230.38,5.64v19.07c-.46,8.3-4.31,14.77-10.38,19.98l-32.07,25.44c-5.34,4.54.78,10.99,5.71,6.57l36.88-29.57v11.53c-.33,8.2-5.26,16.17-10.61,20.35l-16.71,13.08c-4.6,3.97,1.09,10.12,5.4,6.66l21.86-17.55v11.63c-.25,8.91-4.76,16.33-11.87,21.96l-21.65,17.33c-4.18-26.84-18.48-47.4-41.74-62.4Z"/><path class="f" d="m146.66,69.73v-3.61L71.48,5.64v19.07c.46,8.3,4.31,14.77,10.38,19.98l32.07,25.44c5.34,4.54-.78,10.99-5.71,6.57l-36.88-29.57v11.53c.33,8.2,5.26,16.17,10.61,20.35l16.71,13.08c4.6,3.97-1.09,10.12-5.4,6.66l-21.86-17.55v11.63c.25,8.91,4.76,16.33,11.87,21.96l21.65,17.33c4.18-26.84,18.48-47.4,41.74-62.4Z"/><path class="f" d="m194.99,137.13v95.08c-7.75-25.79-23.08-46.03-41.85-61.21l41.85-33.86Z"/><path class="f" d="m106.87,137.13v95.08c7.75-25.79,23.08-46.03,41.85-61.21l-41.85-33.86Z"/><path class="e" d="m189.79,251.54c.12-.29.24-.25.47-.12,1.11.74,1.98,1.85,1.98,3.23,0,1.99-1.26,4.32-3.06,5.25-.48.24-3.49,1.23-1.63-.02.55-.37,3.02-2.37,3.02-3s-1.3-1.85-1.76-2.24c-.62-.65.68-2.31.98-3.12Z"/><path class="e" d="m139.7,251.78c.12-.29.24-.25.47-.12,1.11.74,1.98,1.85,1.98,3.23,0,1.99-1.26,4.32-3.06,5.25-.48.24-3.49,1.23-1.63-.02.55-.37,3.02-2.37,3.02-3s-1.3-1.85-1.76-2.23c-.62-.65.68-2.31.98-3.12Z"/><path class="e" d="m186.45,244.61c.61-1.04.21.81.18,1.02-.28,1.48-.35,3.11-.51,4.63-.28,2.66-.34,5.74-2,8-.26.37-.32.31-.24-.1.49-1.86.56-4.29.72-6.21.29-3.45.35-4.18,1.84-7.33Z"/><path class="e" d="m156.14,244.63c.61-1.04.21.81.18,1.02-.28,1.48-.35,3.11-.51,4.63-.28,2.66-.34,5.74-2,8-.26.37-.32.31-.24-.1.49-1.86.56-4.29.72-6.21.29-3.45.35-4.18,1.84-7.33Z"/><path class="e" d="m147.06,244.68c.61-1.04.21.81.18,1.02-.28,1.48-.35,3.11-.51,4.63-.28,2.66-.34,5.74-2,8-.26.37-.32.31-.24-.1.49-1.86.56-4.29.72-6.21.29-3.45.35-4.18,1.84-7.33Z"/><path class="e" d="m136.3,245.62c.61-1.04.21.81.18,1.02-.28,1.48-.35,3.11-.51,4.63-.28,2.66-.34,5.74-2,8-.26.37-.32.31-.24-.1.49-1.86.56-4.29.72-6.21.29-3.45.35-4.18,1.84-7.33Z"/><path class="e" d="m165.2,259.01c-.41-1.59.45-10.35,1.22-12.25.07-.24,1.25-3.39,1.29-3.43.35-.53.08.97.02,1.47-.39,2.37-.74,4.99-1,7.39.32,0,11.02-12.79,12.39-14.59,1.15-1.48-1.07,3.14-1.31,3.45l-9.1,10.78c2.15,0,4.19,1.86,5.45,1.86.5,0,.99-.58,1.24-.94.32-.5.32-.02.59-.02.26.06.79-.54.94-.74.28-.58.33-.12.53-.12.37,0,.88-.67,1.06-.98.11-.25.23.04.41.04.42-.2,1.05-.77,1.12-1.23.11-.26.17-1.5.2-1.86.11-1.09.9-2.74,1.47-3.65.72-1.41,0,5.21-1.63,7.22-.41.54-1.14,1.32-1.82,1.53-.47.08-.54.38-.92.57-.33.19-.61.14-.94.49-.38.35-.7.31-1.06.53-.42.22-.71.61-1.1.88-.78.54-1.84-.34-2.33-.14-.12.04-.2.16-.25.33-.47,1.76-1.43,3.9-3,4.94-1.6.98-3.05.31-3.45-1.53h0Zm2.67-2.23c.89.31,2.84-.17,2.84-1.18,0-1.09-1.28-1.73-2.21-1.84-2.94-.4-2.21,2.53-.63,3.02Z"/><path class="e" d="m159.7,258.97c1.08,0,2.23-.97,1.02-2.06-.79-.64-2.2-.54-2.32-.65-.19-.4.91-3.51,1.94-3.51,3.9.2,2.24,5.43.8,7.39-.69.94-2.04,1.85-3.08.74-1.09-1.29.58-5.32.74-4.41.11.48-1.12,2.49.88,2.49Z"/><path class="e" d="m151.35,254.26c-.5,1.54-1.26,3.71-2.33,4.94-1.29,1.61-5.56,1.98-3.7.81,2.92-2.02,3.9-2.53,5.43-5.98,1.04-2.46,1.79-3.79.61.24Z"/><path class="e" d="m120.53,257.3c-.5,1.51-1.84,4.98-3.8,4.98-.69,0-1.85-1.57-1.85-2.26,0-.28.26-.46.45-.62.54-1.22.78-2.48,1.02-3.78.19-1.52.31-3.06.51-4.57,0-.69,2.44-5.87,1.96-3.45-.26,1.26-.42,2.58-.61,3.86-.27,2.38-.58,6.36-2.39,8.17,1.74,1.22,3.89-1.31,4.21-3l.77-6.33c.07-1.04,2.06-5.39,1.8-3.78-.32,1.78-.64,3.85-.75,5.63-.1,1.77.43,2.81,2.51,2.78,1.2,0,1.67-.67,2.47-1.35.55-.54.84-.24,1.47-.24.83,0,1.48-1.45,1.69-1.45.94.46,1.19-.32,1.65-1.55.48-1.27.44.34.16,1.13-.37.96-.99,1.88-1.94,2.35-.57.15-1.27,1.6-2.24,1.65-1.22-.17-1.19-.31-2.21,1.21-1.14,2.04-3.71,2.55-4.88.61Z"/><path class="e" d="m114.39,238.19c0,4.83,36.82-.17,40.09-.55,9.54-1.11,10.62.14.68,1.98-.66.12-42.97,8.89-42.97,1.1,0-3,4.53-6.33,6.9-7.57-.27-.09-.65-.37-.65-.68,0-.6,1.53-2.75,2.04-3.18.83-.06,2.78.57,2.78,1.55,0,.8-1.27,2.37-2.1,2.63-1.69.61-6.78,3.13-6.78,4.72Z"/><path class="e" d="m183.6,232.1c.29-.5.52-.42,1.02-.19.56.31,1.23,1.03,1.23,1.7s-.65,1.57-1.11,2.02c-.31.27-.53.33-.87.04-.33-.28-.81-.6-1.19-.79-.67-.48.57-2.32.92-2.79Z"/><path class="e" d="m146.65,231.77c.29-.5.52-.42,1.02-.19.56.31,1.23,1.03,1.23,1.7s-.65,1.57-1.11,2.02c-.31.27-.53.33-.87.04-.33-.28-.81-.6-1.19-.79-.67-.48.57-2.32.92-2.79Z"/><path class="e" d="m168.9,235.64c0-.29,1.48-2.79,1.7-2.79.45,0,1.58.89,1.81,1.34.21-.29,1.2-1.92,1.4-1.92.63,0,1.74,1.04,1.74,1.7,0,.73-.71,1.63-1.21,2.13-.28.22-.38.32-.7.13-.46-.37-.89-.81-1.38-1.13-.2.39-1.1,1.83-1.57,1.83-.29,0-1.18-.78-1.53-.98-.11-.07-.26-.18-.26-.32h0Zm1.85-4.41c-.17.36-.35.57.09.81.46.2.72.47,1.09.79.31.26.44.26.7-.04.41-.41,1-1.42,1-2,0-.66-.98-1.62-1.62-1.62-.24,0-1.12,1.79-1.26,2.06Z"/><path class="e" d="m173.94,242.8c-.33.43-.5.25-.19-.23.94-1.32,2.04-2.55,2.94-3.9.24-.38.69-.8.43-.09-.57,1.21-2.29,3.19-3.17,4.22Z"/><path class="e" d="m165.49,231.18c-1.71,1.6-4.06,2.87-6.45,2.87-.7,0-1.21-.3-1.85-.3-.46,0-1.59.48-1.87.77-.54.4-.59.35-.38-.28.42-1.17,1.5-2.28,2.55-2.9,1.16-.64,1.76-.11,2.92-.11,2.16,0,4.53-1.02,6.07-2.56.4-.45.68-.64.81-.57.6.3-1.69,2.97-1.79,3.07Z"/><path class="e" d="m123.61,274.81c-.23.52-.55,1-.92,1.44-.1.05-.23,0-.2-.11.63-1,1.06-2.42,1.06-3.62s-.42-2.59-1.06-3.62c-.05-.11.08-.17.2-.14.67.82,1.17,1.96,1.35,3.02.18,1.08,0,2.04-.43,3.04Z"/><path class="e" d="m113.23,274.82c.23.52.55,1,.92,1.44.1.05.23,0,.2-.11-.63-1-1.06-2.42-1.06-3.62s.42-2.59,1.06-3.62c.05-.11-.08-.17-.2-.14-.67.82-1.17,1.97-1.35,3.02-.18,1.08,0,2.04.43,3.04Z"/><path class="e" d="m163.53,275.64c.86,0,2.37.53,2.37,1.57,0,1.17-1.12,2.66-2.26,3.01-2.75.85-5.6,1.64-6.18,4.88-.82,4.34-.88,8.56-.8,12.94,0,.62-.04,1.16-.09,1.63-.73-4.42-.75-10.83.48-15.24.75-2.59,2.51-5.31,5.12-6.27.31-.67.83-2.08,1.35-2.53Z"/><path class="e" d="m105.41,276.73c.39,0,1.37.77,1.57,1.16.16-.22,1.05-1.66,1.22-1.66.55,0,1.51.9,1.51,1.48,0,.62-.63,1.42-1.05,1.85-.24.19-.33.28-.61.11-.4-.32-.77-.71-1.2-.98-.17.33-.96,1.59-1.37,1.59-.25,0-.62-.36-.83-.52-.18-.14-.72-.41-.72-.61,0-.27,1.29-2.42,1.48-2.42h0Zm.13-1.4c-.13.28-.32.53.07.7.37.17.64.42.94.68.27.23.38.22.61-.04.36-.36.87-1.22.87-1.74,0-.56-.86-1.4-1.4-1.4-.21,0-.97,1.55-1.09,1.79Z"/><path class="e" d="m103.52,290.65c-.13.24-.53,1.47-.79,1.47-.27-.09.66-2.46-2.09-2.07-2.54.32-4.53,4.25-6.23,6.1-1.41,1.5-2.67,2.34-4.57,3.06-.23.09-.51.07-.18-.19,2.79-1.58,4.57-3.63,6.29-6.26,1.25-1.88,2.9-4.2,4.96-5.24,1.04-.47,2.51-.59,3.11.63.39-.68,1.57-2.14,2.19-2.49.43-.22.87-.29,1.31-.2.63.11.98-.46,1.3-.93.35-.54.37-.2.57-.26.42,0,.92-1.19,1.05-1.51.09-.24.3-.24.37.03.07.98-.32,2.3-1.22,2.81-.46.29-.76.58-1.13.97-1.19,1.19-1.7.32-2.64.82-.74.39-1.91,2.36-2.3,3.25Z"/><path class="e" d="m191.25,284.64c.09-.25.21-.2.41-.09.98.62,1.73,1.63,1.73,2.83,0,1.06-.76,3.01-1.54,3.79-.53.53-2.25,1.47-2.92,1.37-.36-.06.29-.53.38-.59.45-.31,2.64-2.09,2.64-2.62s-1.14-1.62-1.54-1.95c-.2-.2-.27-.27-.17-.56.2-.68.76-1.47,1.02-2.18Z"/><path class="e" d="m155.44,265.56c.11-.26.87-1.85,1.13-1.85.73,0,1.67.9,1.67,1.63,0,.54-.58,1.38-.96,1.75-.27.26-.46.29-.76.05-.31-.26-.67-.49-1.03-.69-.36-.21-.17-.58-.05-.88Z"/><path class="e" d="m126.3,275.64c.11-.26.87-1.85,1.13-1.85.73,0,1.67.9,1.67,1.63,0,.54-.58,1.38-.96,1.75-.27.26-.46.29-.76.05-.31-.26-.67-.49-1.03-.69-.36-.21-.17-.58-.05-.88Z"/><path class="e" d="m166.08,291.18c-1.13-1.77.26-8.61.79-11,.1-.58.7-1.83.94-2.45.03-.15.27-.22.22.06-.33,2.19-.7,4.37-1.02,6.57-.13,1.23-.74,3.51.83,4.07.06-.14.61-1.42.65-1.44.27-.13.52.14.65.34.64,1.13-.26,3.62-1.45,4.31-.63.38-1.25.11-1.61-.45Z"/><path class="e" d="m86.63,289.84c.57.97-.35,3.85-.79,4.81-1.08,2.44-3.27,5.21-6.2,5.21-3.43,0-4.08-3.15-3.55-6.01.4-2.52,1.66-5.13,2.95-7.31.32-.5.87-.85.48,0-1.36,2.43-4.26,8.22-.6,9.78,1.83.79,4.08-.08,5.5-1.3.45-.43,1.48-1.52,1.48-2.13,0-.84-1.83-.65-2.44-1.5-.88-1.86,1.92-6.21,2.81-7.05.64-.76,2.7-3.09,3.86-2.41.73.58-.91,2.85-1.36,2.85-.28,0-.37-.11-.65-.11-.93,0-2.97,2.11-3.43,3.15-.71,1.39,1.38,1.07,1.93,2.03Z"/><path class="e" d="m193.76,298.57c0-.27,1.33-2.45,1.51-2.45.44,0,1.39.8,1.6,1.17.17-.23,1.07-1.71,1.26-1.71.56,0,1.56.96,1.56,1.54s-.67,1.51-1.1,1.89c-.22.19-.36.3-.62.11-.43-.32-.72-.67-1.22-.98-.31.48-.69,1.08-1.13,1.45-.26.22-.42.18-.68-.05-.13-.11-.57-.49-.93-.7-.17-.1-.26-.23-.26-.28Z"/><path class="e" d="m124.82,297.09c0-.27,1.33-2.45,1.51-2.45.44,0,1.39.8,1.6,1.17.17-.23,1.07-1.71,1.26-1.71.56,0,1.56.96,1.56,1.54s-.67,1.51-1.1,1.89c-.22.19-.36.3-.62.11-.43-.32-.72-.67-1.22-.98-.31.48-.69,1.08-1.13,1.45-.26.22-.42.18-.68-.05-.13-.11-.57-.49-.93-.7-.17-.1-.26-.23-.26-.28Z"/><path class="e" d="m115.68,273.58c.2.5,1.42.26,1.42-.32,0-.88-1.47-.78-1.53-.87-.1-.1.44-1.88,1.04-1.88,2.55,0,.89,4.65-.65,4.65-1.22,0-.68-1.89-.41-2.53.04-.1.19-.34.24-.12.04.23-.25.82-.11,1.07Z"/><path class="e" d="m190.41,274.03c-.33.54-3.03,3.38-3.1,3.28-.18-.33,2.6-3.16,2.94-3.66.02-.03.39-.53.43-.32.03.18-.17.55-.28.7Z"/><path class="e" d="m182.29,292.26c-1.55-1.08-.96-4.44-.71-6.15.27-2.1.66-4.19.94-6.29.06-.36,1-3.17,1.28-3.17.06-.02.09.08.08.23-.07.59-.89,7.06-.82,7.06,1.7-2.08,3.46-4.07,5.22-6.09.88-1,1.73-1.98,2.55-2.95.82-.96,1.56-1.88,2.22-2.75.17-.22.42-.41.31.05-.13.59-.92,2.45-1.37,2.89l-7.34,8.52c1.36-.4,2.92.82,2.92,2.26,0,1.76-1.44,5.24-3.11,6.31-.6.41-1.55.58-2.18.09h0Zm.51-5.01c-.31,1.03.73,1.98,1.76,1.98.64,0,1.68-.56,1.68-1.27,0-.87-1.1-1.34-1.84-1.39-.53-.03-1.43.1-1.61.68Z"/><path class="e" d="m195.92,291.69c-.86-.43-.98-1.99-.98-2.81.07-2.57.73-6.29,1.26-8.69.23-.83.67-1.63.94-2.45.08-.19.26-.19.22.06-.35,2.63-.87,5.24-1.2,7.87-.1.79-.18,2.24.73,2.6.52.28,1.12.15,1.4-.39.2-.38.46-.65.41,0-.13,1.16-.52,2.91-1.5,3.67-.4.31-.84.38-1.29.14Z"/><path class="e" d="m179.11,286.92c-.43,1.32-1.08,3.18-2,4.24-1.11,1.38-4.77,1.7-3.18.69,2.51-1.73,3.35-2.18,4.66-5.13.89-2.11,1.54-3.25.52.2Z"/><path class="e" d="m94.01,287.02c-.43,1.32-1.08,3.18-2,4.24-1.11,1.38-4.77,1.7-3.18.69,2.51-1.73,3.35-2.18,4.66-5.13.89-2.11,1.54-3.25.52.2Z"/><path class="e" d="m121.34,271.79c-.26.82-.67,1.98-1.24,2.63-.69.86-2.96,1.05-1.97.43,1.55-1.08,2.08-1.35,2.89-3.19.55-1.31.96-2.02.32.13Z"/><path class="e" d="m218.88,278.71c.52-.9.18.7.15.88-.24,1.27-.3,2.67-.44,3.97-.24,2.29-.3,4.93-1.71,6.87-.22.31-.28.27-.2-.09.42-1.59.48-3.68.62-5.34.25-2.96.3-3.59,1.58-6.3Z"/><path class="e" d="m205.24,289.62c-.96,1.61-1.66,2.11-3.53,2.37-.99.15-.91-.13-.17-.61,2.94-1.88,3.94-2.82,5.38-6.33.21-.51.56-.59.35,0-.42,1.31-.49,2.83,1.05,3.42.72-1.14,2.4-4.07,4.03-4.07.74,0,1.54.57,1.96.57.25,0,.73-.22.81-.14.14.16.03.69-.08.86-.21.3-.51.55-.78.8-.29.27-.47.69-.66,1.03-.72,1.26-1.79,2.54-2.99,3.36-1.91,1.29-4.63,1.54-5.37-1.27h0Zm8.25-3.09c-2.82-1.04-3.05-.4-4.76,2.02,2.03.33,3.5-.42,4.76-2.02Z"/><path class="e" d="m223.97,287.73c-.2.99-.85,2.25-1.61,2.94-.62.62-2.12,1.14-3,1.25-.54.06-.6-.21-.17-.46,1.23-.71,2.71-1.59,3.59-2.72.2-.24.04-.3-.22-.2-.98.35-1.77-.08-1.77-1.16,0-.62.91-2.94,1.69-2.94,1.52,0,1.77,2.13,1.49,3.3Z"/><path class="e" d="m173.68,278.41c.19-.47.4-.46.29.03-.13.67-.23,1.34-.31,2.02-.29,2.8-.32,7.47-2.02,9.78-.21.33-.26.24-.2-.09.11-.37.19-.83.26-1.36.26-2.23.38-4.46.6-6.69.16-1.17.84-2.63,1.37-3.69Z"/><path class="e" d="m118.35,288.21c0,1.04,1.7.72,1.7,2.55,0,3.59-3.34,9.1-7.29,9.1-4.41,0-4.04-4.61-3.22-7.65.6-1.99,1.42-3.72,2.47-5.5.46-.72.71-.54.34.2-1.24,2.42-3.96,7.9-.19,9.41,2.26.93,5.59-.58,6.65-2.71.95-1.5-2.09-1.38-2.09-3.17,0-2.3,3.65-6.35,5.59-6.35.42,0,.52.37.83.5.66.15,1.98-2.04,2.33-2.43.15-.14.34-.2.57-.2,1.12,0,3.06,1.14,4.9,1.27,6.86.74,15.59-1.94,20.72-6.42.45-.39,1.31-1.11,1.9-1.24.51-2.03,3.7-4.05,5.53-4.79.14-.07.13-.2-.03-.23-1.41-.3-2.92-.38-4.02.73-.27.26-.43.26-.23-.14.51-.9,1.42-2.17,2.55-2.29.77-.07,4.22-.19,4.22.85,0,.47-1.03,1.59-1.44,1.78-1.87.8-3.93,1.54-5.3,3.12-.71.71.99,1.29.99,1.7,0,.5-.69,2.03-1.2,2.03-1.06,0-1.28-1.8-2.89-.18-1.07,1.08-2.18,2.04-3.34,2.87-5.45,3.97-12.69,6.16-19.41,5.15-1.72-.32-2.57-.46-3.63-1.81-.4-.48-1.42,1.36-2.19,1.75-1.03.52-1.47-1.42-3.85.79-.31.24-.97.9-.97,1.31Z"/></g></svg>